<?xml version="1.0" standalone="no"?>
<!DOCTYPE svg PUBLIC "-//W3C//DTD SVG 1.1//EN" "http://www.w3.org/Graphics/SVG/1.1/DTD/svg11.dtd" >
<svg xmlns="http://www.w3.org/2000/svg">
<metadata>
This is a custom SVG webfont generated by Font Squirrel.
Designer    : Ray Larabie
Foundry     : Ray Larabie
Foundry URL : httpwwwlarabiefontscom
</metadata>
<defs>
<font id="webfontL7ExYHTv" horiz-adv-x="320" >
<font-face units-per-em="1000" ascent="850" descent="-150" />
<missing-glyph horiz-adv-x="130" />
<glyph unicode=" "  horiz-adv-x="130" />
<glyph unicode="&#x09;" horiz-adv-x="130" />
<glyph unicode="&#xa0;" horiz-adv-x="130" />
<glyph unicode="!" horiz-adv-x="192" d="M37 101h118v-117h-118v117zM155 427l-23 -273h-73l-22 270v440h118v-437z" />
<glyph unicode="&#x22;" horiz-adv-x="212" d="M148 864h104v-103l-22 -141h-59l-23 141v103zM30 864h104v-103l-23 -141h-59l-22 141v103z" />
<glyph unicode="#" horiz-adv-x="422" d="M176 505h54l15 56h-55zM55 650h68l50 188h92l-50 -188h53l50 188h90l-50 -188h72l-23 -89h-73l-15 -56h72l-24 -88h-71l-52 -189h-88l51 189h-56l-50 -189h-90l50 189h-68l23 88h69l15 56h-68z" />
<glyph unicode="$" horiz-adv-x="341" d="M180 103q11 6 11 31v97q0 27 -11 58v-186zM162 745q-11 -6 -11 -31v-115q0 -17 11 -48v194zM180 864q127 -9 127 -203v-93h-116v146q0 24 -11 30v-228q7 -15 20 -32l26 -35q42 -54 61.5 -102.5t19.5 -85.5v-74q0 -196 -127 -203v-55h-18v55q-128 6 -128 203v120h117v-173 q0 -26 11 -32v228q-9 17 -20.5 35t-25.5 36q-82 106 -82 206v54q0 197 128 203v49h18v-49z" />
<glyph unicode="%" horiz-adv-x="561" d="M145 756q0 19 -15 19q-13 0 -13 -19v-190q0 -19 13 -19q15 0 15 19v190zM438 283q0 19 -15 19q-14 0 -14 -19v-190q0 -19 14 -19q15 0 15 19v190zM235 602q0 -145 -105 -145q-106 0 -106 145v117q0 146 106 146q105 0 105 -146v-117zM528 129q0 -145 -105 -145 q-106 0 -106 145v118q0 145 106 145q105 0 105 -145v-118zM488 864l-354 -880h-85l354 880h85z" />
<glyph unicode="&#x26;" horiz-adv-x="401" d="M151 695q1 -22 4 -55.5t11 -78.5q27 90 27 135v18q0 33 -21 33t-21 -33v-19zM167 93q36 0 49 13l-72 225q-16 -47 -16 -112v-64q0 -62 39 -62zM295 687q0 -101 -77 -238l58 -173l11 32h102l-60 -213q5 -5 17 -5q2 0 11.5 2t27.5 7v-115h-60q-43 0 -63 26q-38 -26 -95 -26 q-152 0 -152 203v38q0 122 79 228q-55 146 -55 234q0 177 133 177q123 0 123 -177z" />
<glyph unicode="'" horiz-adv-x="131" d="M30 864h104v-103l-23 -141h-59l-22 141v103z" />
<glyph unicode="(" horiz-adv-x="233" d="M106 85q0 -103 91 -103v-83q-174 0 -174 203v644q0 203 174 203v-83q-91 0 -91 -103v-678z" />
<glyph unicode=")" horiz-adv-x="233" d="M113 763q0 103 -90 103v83q173 0 173 -203v-644q0 -203 -173 -203v83q90 0 90 103v678z" />
<glyph unicode="*" horiz-adv-x="366" d="M298 553l-53 -87l99 23v-135l-99 21l53 -86l-128 -42l-12 101l-67 -76l-78 110l92 39l-92 41l78 108l67 -77l12 103z" />
<glyph unicode="+" horiz-adv-x="316" d="M208 573v-91h90v-99h-90v-92h-100v92h-91v99h91v91h100z" />
<glyph unicode="," horiz-adv-x="152" d="M19 118h108v-101q0 -93 -77 -93h-18v49q22 0 25 25h-38v120z" />
<glyph unicode="-" horiz-adv-x="208" d="M17 482h174v-99h-174v99z" />
<glyph unicode="." horiz-adv-x="152" d="M19 118h108v-134h-108v134z" />
<glyph unicode="/" horiz-adv-x="254" d="M252 864l-168 -880h-85l168 880h85z" />
<glyph unicode="0" horiz-adv-x="354" d="M204 714q0 33 -27 33q-26 0 -26 -33v-580q0 -33 26 -33q27 0 27 33v580zM320 187q0 -203 -143 -203t-143 203v474q0 203 143 203t143 -203v-474z" />
<glyph unicode="1" horiz-adv-x="213" d="M16 779q47 0 47 49v36h116v-880h-116v678h-47v117z" />
<glyph unicode="2" horiz-adv-x="354" d="M34 161q0 116 87 244q83 122 83 225v84q0 33 -27 33q-26 0 -26 -33v-146h-117v93q0 203 143 203t143 -203v-46q0 -61 -22 -121.5t-65 -126.5q-81 -123 -81 -218v-48h168v-117h-286v177z" />
<glyph unicode="3" horiz-adv-x="354" d="M204 714q0 33 -27 33q-26 0 -26 -33v-146h-117v93q0 203 143 203t143 -203v-84q0 -101 -53 -145q53 -44 53 -144v-101q0 -203 -143 -203t-143 203v120h117v-173q0 -33 26 -33q27 0 27 33v207q0 15 -6.5 24t-20.5 9h-42v117h47q22 0 22 33v190z" />
<glyph unicode="4" horiz-adv-x="352" d="M181 270v226l-19 -91l-38 -135h57zM7 260l178 604h108v-594h43v-116h-43v-170h-112v170h-174v106z" />
<glyph unicode="5" horiz-adv-x="356" d="M34 864h286v-117h-169v-232q10 27 49 27q122 0 122 -203v-152q0 -203 -143 -203t-143 203v120h117v-173q0 -33 26 -33q27 0 27 33v258q0 40 -35 40q-29 0 -35 -38h-102v470z" />
<glyph unicode="6" horiz-adv-x="354" d="M204 389q0 34 -27 34q-25 0 -26 -31v-258q0 -33 26 -33q27 0 27 33v255zM320 568h-116v146q0 33 -27 33q-26 0 -26 -33v-200q14 26 58 26q111 0 111 -203v-150q0 -203 -143 -203t-143 203v474q0 203 143 203t143 -203v-93z" />
<glyph unicode="7" horiz-adv-x="311" d="M12 864h287v-115q-70 -159 -97 -349t-28 -416h-116q0 187 19 328t43 236t45 145t25 54h-178v117z" />
<glyph unicode="8" horiz-adv-x="354" d="M204 714q0 33 -27 33q-26 0 -26 -33v-190q0 -15 6.5 -24t20.5 -9q26 0 26 33v190zM204 341q0 14 -6.5 23.5t-19.5 9.5q-27 0 -27 -33v-207q0 -33 26 -33q27 0 27 33v207zM320 577q0 -101 -53 -145q53 -44 53 -144v-101q0 -203 -143 -203t-143 203v101q0 103 53 144 q-53 42 -53 145v84q0 203 143 203t143 -203v-84z" />
<glyph unicode="9" horiz-adv-x="354" d="M151 459q0 -34 26 -34q25 0 27 30v259q0 33 -27 33q-26 0 -26 -33v-255zM34 280h117v-146q0 -33 26 -33q27 0 27 33v189q-12 -15 -38 -15q-132 0 -132 203v150q0 203 143 203t143 -203v-474q0 -203 -143 -203t-143 203v93z" />
<glyph unicode=":" horiz-adv-x="152" d="M19 408h108v-133h-108v133zM19 118h108v-134h-108v134z" />
<glyph unicode=";" horiz-adv-x="152" d="M19 118h108v-101q0 -93 -77 -93h-18v52h5q17 0 20 22h-38v120zM19 408h108v-133h-108v133z" />
<glyph unicode="&#x3c;" horiz-adv-x="319" d="M301 257l-284 122v105l284 122v-82l-214 -90l214 -95v-82z" />
<glyph unicode="=" horiz-adv-x="284" d="M17 533h242v-91h-242v91zM17 389h242v-91h-242v91z" />
<glyph unicode="&#x3e;" horiz-adv-x="319" d="M17 606l284 -123v-105l-284 -121v82l213 89l-213 96v82z" />
<glyph unicode="?" horiz-adv-x="358" d="M98 101h117v-117h-117v117zM215 154h-117v149q0 114 56 182q23 28 36.5 67t13.5 90v72q0 33 -27 33q-26 0 -26 -33v-146h-117v93q0 203 143 203t143 -203v-32q0 -119 -56 -187q-49 -59 -49 -151v-137z" />
<glyph unicode="@" horiz-adv-x="485" d="M260 370q-36 -11 -36 -33v-35q0 -22 18 -22t18 22v68zM155 341q0 34 11 52.5t39 36.5l36 22q17 10 19 25v58q0 21 -16 21t-16 -21v-64h-68v55q0 112 84 112q85 0 85 -112v-224q0 -21 22 -21t22 21v310q0 83 -132 83q-128 0 -128 -83v-379q0 -38 22 -61t70 -23h226v-77 h-211q-189 0 -189 135v384q0 188 211 188q212 0 212 -188v-284q0 -108 -102 -108q-19 0 -34 5t-28 23q-21 -28 -53 -28q-82 0 -82 113v29z" />
<glyph unicode="A" horiz-adv-x="342" d="M146 234h49l-18 161l-6 95l-7 -96zM-2 -16l116 880h114l116 -880h-117l-17 127h-80l-14 -127h-118z" />
<glyph unicode="B" horiz-adv-x="354" d="M204 714q0 33 -27 33h-26v-256h27q26 0 26 33v190zM204 341q0 30 -26 33h-27v-273h26q27 0 27 33v207zM320 577q0 -102 -49 -145q49 -42 49 -144v-101q0 -203 -143 -203h-143v880h143q143 0 143 -203v-84z" />
<glyph unicode="C" horiz-adv-x="346" d="M204 307h112v-120q0 -203 -139 -203q-143 0 -143 203v474q0 203 143 203q139 0 139 -203v-93h-112v146q0 33 -27 33q-26 0 -26 -33v-580q0 -33 26 -33q27 0 27 33v173z" />
<glyph unicode="D" horiz-adv-x="354" d="M204 714q0 33 -27 33h-26v-646h26q27 0 27 33v580zM320 187q0 -203 -143 -203h-143v880h143q143 0 143 -203v-474z" />
<glyph unicode="E" horiz-adv-x="302" d="M151 374v-273h130v-117h-247v880h247v-117h-130v-256h74v-117h-74z" />
<glyph unicode="F" horiz-adv-x="297" d="M151 374v-390h-117v880h247v-117h-130v-256h74v-117h-74z" />
<glyph unicode="G" horiz-adv-x="351" d="M173 406h150v-429l-55 49q-30 -42 -91 -42q-143 0 -143 203v474q0 203 144 203q146 0 146 -203v-93h-113v146q0 33 -33 33q-27 0 -27 -33v-580q0 -33 26 -33q33 0 33 33v156h-37v116z" />
<glyph unicode="H" horiz-adv-x="354" d="M151 491h53v373h116v-880h-116v390h-53v-390h-117v880h117v-373z" />
<glyph unicode="I" horiz-adv-x="184" d="M34 -16v880h117v-880h-117z" />
<glyph unicode="J" horiz-adv-x="232" d="M87 864h117v-677q0 -203 -144 -203h-39v117h39q27 0 27 33v730z" />
<glyph unicode="K" horiz-adv-x="375" d="M34 -16v880h117v-298l97 298h123l-148 -429l156 -451h-124l-104 318v-318h-117z" />
<glyph unicode="L" horiz-adv-x="293" d="M151 101h130v-117h-247v880h117v-763z" />
<glyph unicode="M" horiz-adv-x="490" d="M34 -16v880h154l42 -342l13 -151l14 149l42 344h157v-880h-108v469l-15 -162l-40 -307h-98l-40 311l-13 147v-458h-108z" />
<glyph unicode="N" horiz-adv-x="382" d="M161 295l-19 136v-447h-108v880h131l57 -313l18 -133v446h108v-880h-132z" />
<glyph unicode="O" horiz-adv-x="354" d="M204 714q0 33 -27 33q-26 0 -26 -33v-580q0 -33 26 -33q27 0 27 33v580zM320 187q0 -203 -143 -203t-143 203v474q0 203 143 203t143 -203v-474z" />
<glyph unicode="P" horiz-adv-x="358" d="M151 747v-222h30q39 0 39 41v140q0 41 -40 41h-29zM151 408v-424h-117v880h146q157 0 157 -211v-34q0 -211 -156 -211h-30z" />
<glyph unicode="Q" horiz-adv-x="354" d="M204 714q0 33 -27 33q-26 0 -26 -33v-580q0 -33 26 -33q27 0 27 33v580zM320 187q0 -171 -102 -198q2 -20 16 -23h10q26 0 76 32v-100q-50 -22 -86 -22q-30 0 -52 13h1q-47 24 -51 100q-98 30 -98 198v474q0 203 143 203t143 -203v-474z" />
<glyph unicode="R" horiz-adv-x="355" d="M151 747v-256h30q39 0 39 41v174q0 41 -40 41h-29zM165 374h-14v-390h-117v880h146q157 0 157 -194v-93q0 -119 -65 -175l66 -418h-119z" />
<glyph unicode="S" horiz-adv-x="341" d="M191 714q0 33 -20 33t-20 -33v-115q0 -50 75 -150q81 -110 81 -188v-74q0 -203 -136 -203q-137 0 -137 203v120h117v-173q0 -33 20 -33t20 33v97q0 72 -75 170q-82 106 -82 206v54q0 203 137 203q136 0 136 -203v-93h-116v146z" />
<glyph unicode="T" horiz-adv-x="293" d="M3 864h286v-117h-84v-763h-117v763h-85v117z" />
<glyph unicode="U" horiz-adv-x="354" d="M204 864h116v-677q0 -203 -143 -203t-143 203v677h117v-730q0 -33 26 -33q27 0 27 33v730z" />
<glyph unicode="V" horiz-adv-x="342" d="M344 864l-116 -880h-114l-116 880h118l55 -447l56 447h117z" />
<glyph unicode="W" horiz-adv-x="550" d="M552 864l-115 -880h-106l-56 430l-55 -430h-106l-116 880h118l55 -451l56 451h96l55 -451l57 451h117z" />
<glyph unicode="X" horiz-adv-x="355" d="M340 864l-102 -407l122 -473h-122l-47 215l-13 99l-13 -101l-47 -213h-122l121 473l-101 407h122l24 -125l15 -119l15 116l25 128h123z" />
<glyph unicode="Y" horiz-adv-x="339" d="M111 -16v375l-115 505h121l37 -191l16 -127l15 126l37 192h121l-115 -505v-375h-117z" />
<glyph unicode="Z" horiz-adv-x="317" d="M24 864h277v-124l-163 -639h163v-117h-285v116l171 647h-163v117z" />
<glyph unicode="[" horiz-adv-x="233" d="M106 866v-884h91v-84h-174v1051h174v-83h-91z" />
<glyph unicode="\" horiz-adv-x="261" d="M87 864l170 -880h-86l-168 880h84z" />
<glyph unicode="]" horiz-adv-x="233" d="M23 -19h90v885h-90v83h173v-1050h-173v82z" />
<glyph unicode="^" horiz-adv-x="356" d="M3 580l123 284h105l122 -284h-83l-90 213l-94 -213h-83z" />
<glyph unicode="_" horiz-adv-x="370" d="M0 -69h371v-117h-371v117z" />
<glyph unicode="`" horiz-adv-x="199" d="M129 977l82 -86h-84l-142 86h144z" />
<glyph unicode="a" horiz-adv-x="319" d="M34 197q0 39 15 67t37.5 49.5t47.5 38.5l46 30v129q0 26 -18 26q-16 0 -16 -26v-134h-105v103q0 166 121 166q123 0 123 -166v-496h-105v28q-21 -28 -54 -28q-92 0 -92 165v48zM180 255l-16 -9q-8 -5 -13.5 -12t-8.5 -17.5t-3 -27.5v-70q0 -28 18 -28q23 0 23 28v136z M155 237l-1 -1v1h1z" />
<glyph unicode="b" d="M181 511q0 26 -21 26t-21 -26v-392q0 -28 21 -28t21 28v392zM34 864h105v-226q22 8 44 8q103 0 103 -166v-331q0 -165 -111 -165q-48 0 -73 36l-17 -36h-51v880z" />
<glyph unicode="c" horiz-adv-x="316" d="M181 511q0 26 -22 26q-20 0 -20 -26v-392q0 -28 20 -28q22 0 22 28v136h105v-106q0 -165 -127 -165q-125 0 -125 165v331q0 166 125 166q127 0 127 -166v-103h-105v134z" />
<glyph unicode="d" d="M139 119q0 -28 21 -28t21 28v392q0 26 -21 26t-21 -26v-392zM286 -16h-105v24q-26 -24 -59 -24q-88 0 -88 165v331q0 166 97 166q35 0 50 -20v238h105v-880z" />
<glyph unicode="e" d="M139 391h42v120q0 26 -22 26q-20 0 -20 -26v-120zM139 285v-166q0 -28 20 -28q22 0 22 28v136h105v-106q0 -165 -127 -165q-125 0 -125 165v331q0 166 125 166q127 0 127 -166v-195h-147z" />
<glyph unicode="f" horiz-adv-x="181" d="M0 646h28v53q0 165 153 165v-108q-49 0 -49 -27v-83h33v-109h-33v-553h-104v553h-28v109z" />
<glyph unicode="g" d="M139 134q0 -27 21 -27q19 0 21 20v384q0 27 -21 27t-21 -27v-377zM159 -58q22 0 22 27v48q-18 -18 -59 -18q-88 0 -88 165v316q0 166 90 166q36 0 57 -25v25h105v-646q0 -165 -127 -165q-113 0 -126 147h105q1 -40 21 -40z" />
<glyph unicode="h" d="M181 511q0 26 -21 26t-21 -26v-527h-105v880h105v-236q21 18 55 18q92 0 92 -166v-496h-105v527z" />
<glyph unicode="i" horiz-adv-x="173" d="M139 717h-105v147h105v-147zM139 -16h-105v662h105v-662z" />
<glyph unicode="j" horiz-adv-x="179" d="M145 717h-105v147h105v-147zM-17 -57q57 0 57 40v663h105v-639q0 -172 -162 -172v108z" />
<glyph unicode="k" horiz-adv-x="316" d="M34 864h105v-459l63 241h110l-111 -334l115 -328h-111l-38 118q-16 51 -28 103v-221h-105v880z" />
<glyph unicode="l" horiz-adv-x="155" d="M24 864h105v-880h-105v880z" />
<glyph unicode="m" horiz-adv-x="466" d="M328 511q0 26 -22 26q-20 0 -20 -25v-528h-105v527q0 26 -21 26t-21 -26v-527h-105v662h105v-18q21 18 55 18q32 0 58 -30q27 30 78 30q102 0 102 -166v-496h-104v527z" />
<glyph unicode="n" d="M181 511q0 26 -21 26t-21 -26v-527h-105v662h105v-18q21 18 55 18q92 0 92 -166v-496h-105v527z" />
<glyph unicode="o" d="M181 511q0 26 -22 26q-20 0 -20 -26v-392q0 -28 20 -28q22 0 22 28v392zM286 149q0 -165 -127 -165q-125 0 -125 165v331q0 166 125 166q127 0 127 -166v-331z" />
<glyph unicode="p" d="M181 511q0 27 -21 27t-21 -27v-392q0 -27 21 -27t21 27v392zM34 646h105v-25q24 25 59 25q88 0 88 -166v-331q0 -165 -88 -165q-40 0 -59 19v-168h-105v811z" />
<glyph unicode="q" d="M139 119q0 -27 21 -27t21 27v392q0 27 -21 27t-21 -27v-392zM286 -165h-105v168q-19 -19 -59 -19q-88 0 -88 165v331q0 166 88 166q35 0 59 -25v25h105v-811z" />
<glyph unicode="r" horiz-adv-x="216" d="M139 625q22 21 63 21v-145q-20 36 -42 36q-21 0 -21 -26v-527h-105v662h105v-21z" />
<glyph unicode="s" horiz-adv-x="291" d="M164 514q0 28 -18 28q-16 0 -16 -28v-58q0 -24 16.5 -54t48.5 -69q36 -45 54 -90.5t18 -84.5q0 -174 -121 -174q-120 0 -120 177v44h98v-89q0 -28 19 -28t19 28v58q0 48 -63 114q-73 76 -73 182q0 176 118 176q119 0 119 -176v-49h-99v93z" />
<glyph unicode="t" horiz-adv-x="198" d="M5 646h30v218h105v-218h34v-109h-34v-418q0 -27 39 -27v-108q-144 0 -144 165v388h-30v109z" />
<glyph unicode="u" d="M139 119q0 -27 21 -27t21 27v527h105v-662h-105v18q-21 -18 -55 -18q-92 0 -92 165v497h105v-527z" />
<glyph unicode="v" horiz-adv-x="286" d="M110 646l19 -154l13 -146l14 148l19 152h108l-88 -662h-104l-88 662h107z" />
<glyph unicode="w" horiz-adv-x="434" d="M258 646l20 -164l11 -136l12 136l21 164h108l-88 -662h-93l-20 147l-13 137l-12 -136l-20 -148h-93l-88 662h107l19 -158l13 -142l13 143l20 157h83z" />
<glyph unicode="x" horiz-adv-x="283" d="M198 311l85 -327h-111l-15 68l-15 110l-15 -106l-16 -72h-111l84 327l-83 335h112l15 -74l13 -110l13 109l15 75h113z" />
<glyph unicode="y" horiz-adv-x="293" d="M20 -58q65 5 74 58l-88 646h107l22 -172l10 -160l11 158l22 174h108l-86 -648q-11 -85 -57.5 -124t-122.5 -39v107z" />
<glyph unicode="z" horiz-adv-x="288" d="M33 646h226v-106l-121 -449h120v-107h-228v99l125 454h-122v109z" />
<glyph unicode="{" horiz-adv-x="307" d="M191 85q0 -103 91 -103v-83q-174 0 -174 203v200l-100 121l100 124v199q0 203 174 203v-83q-91 0 -91 -103v-241l-80 -98l80 -99v-240z" />
<glyph unicode="|" horiz-adv-x="127" d="M107 864v-880h-85v880h85z" />
<glyph unicode="}" horiz-adv-x="307" d="M104 763q0 103 -91 103v83q174 0 174 -203v-201l99 -120l-99 -125v-198q0 -203 -174 -203v83q91 0 91 103v241l78 98l-78 99v240z" />
<glyph unicode="&#xa1;" horiz-adv-x="181" d="M147 598h-117v116h117v-116zM30 271l22 274h73l22 -270v-440h-117v436z" />
<glyph unicode="&#xa3;" horiz-adv-x="275" d="M46 101v572q0 191 185 191v-108q-80 0 -80 -52v-58h77v-109h-77v-436h110v-117h-247v117h32z" />
<glyph unicode="&#xa5;" horiz-adv-x="339" d="M127 -16v375l-115 505h121l37 -191l16 -127l15 126l37 192h121l-115 -505v-375h-117zM46.2617 402.422h288.439v-66.8281h-288.439v66.8281zM46.2617 296.672h288.439v-66.8281h-288.439v66.8281z" />
<glyph unicode="&#xa6;" horiz-adv-x="127" d="M107 -16h-85v315h85v-315zM106 517h-84v347h84v-347z" />
<glyph unicode="&#xa7;" horiz-adv-x="298" d="M164 450q-2 23 -13 23h-3q-14 0 -14 -21v-56q0 -22 14 -22q16 0 16 22v54zM164 746q0 20 -16 20q-14 0 -14 -20v-59q0 -14 8.5 -31.5t21 -35t26.5 -34.5l25 -31q11 -15 19.5 -25.5t14.5 -23.5t9.5 -31.5t5.5 -49.5q-12 -118 -76 -134q8 -8 16 -18l19 -22h-1 q42 -51 42 -111q0 -156 -116 -156q-114 0 -114 156v9h100v-47q0 -23 14 -23q16 0 16 23q0 59 -62 136h1q-69 79 -69 162q0 125 64 150q-64 73 -64 157q0 156 114 156q116 0 116 -156v-32h-100v71z" />
<glyph unicode="&#xa8;" horiz-adv-x="276" d="M25 977h83v-86h-83v86zM170 891v86h83v-86h-83z" />
<glyph unicode="&#xa9;" horiz-adv-x="723" d="M371 532q0 20 -17 20q-15 0 -15 -20v-217q0 -21 15 -21q17 0 17 21v55h94v-29q0 -143 -111 -143q-108 0 -108 143v165q0 143 108 143q111 0 111 -143v-37h-94v63zM101 428q0 -53 20.5 -100t55.5 -82t82 -55.5t100 -20.5t100 20.5t82.5 55.5t56 82t20.5 100t-20.5 100 t-56 82.5t-82.5 56t-100 20.5t-100 -20.5t-82 -56t-55.5 -82.5t-20.5 -100zM17 428q0 70 27 133.5t73.5 111t108.5 75.5t133 28q70 0 133.5 -28t111 -75.5t75.5 -111t28 -133.5q0 -71 -28 -133t-75.5 -108.5t-111 -73.5t-133.5 -27q-71 0 -133 27t-108.5 73.5t-73.5 108.5 t-27 133z" />
<glyph unicode="&#xaa;" horiz-adv-x="228" d="M24.1016 531.175q0 27.751 10.6328 47.6738t26.582 35.2217q15.9492 15.2979 33.6709 27.3945l32.6084 21.3467v91.7891q0 18.501 -12.7598 18.501q-11.3418 0 -11.3418 -18.501v-95.3467h-74.4307v73.2891q0 118.117 85.7725 118.117q87.1895 0 87.1895 -118.117 v-352.928h-74.4297v19.9238q-14.8867 -19.9238 -38.2793 -19.9238q-65.2148 0 -65.2148 117.405v34.1543zM127.596 572.444l-11.3418 -6.40332q-5.67188 -3.55762 -9.57031 -8.53906q-3.89844 -4.98047 -6.02539 -12.4521q-2.12598 -7.4707 -2.12598 -19.5674v-49.8086 q0 -19.9229 12.7588 -19.9229q16.3047 0 16.3047 19.9229v96.7705zM109.874 559.637l-0.708984 -0.710938v0.710938h0.708984z" />
<glyph unicode="&#xab;" horiz-adv-x="621" d="M409 273l147 -252h-113l-174 254l173 250h114zM209 273l144 -252h-111l-176 252l176 252h112z" />
<glyph unicode="&#xac;" horiz-adv-x="208" d="M33 482h174v-99h-174v99z" />
<glyph unicode="&#xad;" horiz-adv-x="208" d="M17 482h174v-99h-174v99z" />
<glyph unicode="&#xae;" horiz-adv-x="536" d="M83 608q0 -36 14.5 -69t39.5 -58t58 -40t70 -15t70 15t58 40t39.5 58t14.5 69t-14.5 69.5t-39.5 58.5t-58 40t-70 15t-70 -15t-58 -40t-39.5 -58.5t-14.5 -69.5zM14 608q0 53 20 99.5t54 81.5t79.5 55t97.5 20t98.5 -20t81.5 -55t55 -81.5t20 -99.5q0 -52 -20 -97.5 t-55 -79.5t-81.5 -54t-98.5 -20t-97.5 20t-79.5 54t-54 79.5t-20 97.5zM248 714v-78h16q19 0 19 13v53q0 12 -20 12h-15zM255 600h-7v-121h-58v271h73q79 0 79 -59v-29q0 -37 -32 -54l32 -129h-59z" />
<glyph unicode="&#xaf;" horiz-adv-x="244" d="M34 999h184v-86h-184v86z" />
<glyph unicode="&#xb0;" horiz-adv-x="420" d="M102 676q0 -22 8.5 -41.5t23.5 -34.5t35 -23.5t43 -8.5q22 0 41.5 8.5t34.5 23.5t23.5 34.5t8.5 41.5t-8.5 42.5t-23.5 35.5t-34.5 24t-41.5 9q-23 0 -43 -9t-35 -24t-23.5 -35.5t-8.5 -42.5zM25 676q0 38 14.5 72.5t40 60.5t59.5 41.5t73 15.5q38 0 72.5 -15.5 t60.5 -41.5t41 -60.5t15 -72.5q0 -39 -15 -72.5t-41 -58.5t-60.5 -39.5t-72.5 -14.5q-39 0 -73 14.5t-59.5 39.5t-40 58.5t-14.5 72.5z" />
<glyph unicode="&#xb1;" horiz-adv-x="316" d="M35 273h284v-102h-284v102zM224 573v-91h90v-99h-90v-92h-100v92h-91v99h91v91h100z" />
<glyph unicode="&#xb2;" horiz-adv-x="354" d="M34 161q0 116 87 244q83 122 83 225v84q0 33 -27 33q-26 0 -26 -33v-146h-117v93q0 203 143 203t143 -203v-46q0 -61 -22 -121.5t-65 -126.5q-81 -123 -81 -218v-48h168v-117h-286v177z" />
<glyph unicode="&#xb3;" horiz-adv-x="354" d="M204 714q0 33 -27 33q-26 0 -26 -33v-146h-117v93q0 203 143 203t143 -203v-84q0 -101 -53 -145q53 -44 53 -144v-101q0 -203 -143 -203t-143 203v120h117v-173q0 -33 26 -33q27 0 27 33v207q0 15 -6.5 24t-20.5 9h-42v117h47q22 0 22 33v190z" />
<glyph unicode="&#xb4;" horiz-adv-x="199" d="M199 977l-125 -86h-84l82 86h127z" />
<glyph unicode="&#xb5;" horiz-adv-x="301" d="M24 646h105v-527q0 -27 22 -27q21 0 21 27v527h105v-534q2 -20 23 -20v-108h-41q-34 0 -59 31q-28 -30 -71 -31v-150h-105v812z" />
<glyph unicode="&#x3bc;" horiz-adv-x="301" d="M24 646h105v-527q0 -27 22 -27q21 0 21 27v527h105v-534q2 -20 23 -20v-108h-41q-34 0 -59 31q-28 -30 -71 -31v-150h-105v812z" />
<glyph unicode="&#xb6;" horiz-adv-x="285" d="M270 864v-880h-85v530h-21v-530h-85v530h-65v350h256z" />
<glyph unicode="&#xb7;" horiz-adv-x="152" d="M35 465h108v-134h-108v134z" />
<glyph unicode="&#xb8;" horiz-adv-x="218" d="M130 -2q0 -12 7 -21t16 -19.5t16 -24t7 -32.5q0 -66 -70 -66q-68 0 -68 63v21h64q-4 8 -13 14q-26 24 -26 63v26h67v-24zM108 -103q0 2 -0.5 3t-0.5 2v-8q0 1 0.5 1.5t0.5 1.5z" />
<glyph unicode="&#xb9;" horiz-adv-x="197" d="M28 812q29 0 29 13v39h105v-576h-105v419h-29v105z" />
<glyph unicode="&#xba;" horiz-adv-x="301" d="M172 729q0 27 -23 27q-20 0 -20 -27v-318q0 -27 20 -27q23 0 23 27v318zM277 442q0 -165 -128 -165q-125 0 -125 165v257q0 165 125 165q128 0 128 -165v-257z" />
<glyph unicode="&#xbb;" horiz-adv-x="621" d="M60 21l147 252l-147 252h115l173 -250l-174 -254h-114zM263 21l145 252l-145 252h112l176 -252l-176 -252h-112z" />
<glyph unicode="&#xbc;" horiz-adv-x="1038" d="M867 270v226l-19 -91l-38 -135h57zM693 260l178 604h108v-594h43v-116h-43v-170h-112v170h-174v106zM679 864l-370 -880h-88l371 880h87zM16 779q47 0 47 49v36h116v-880h-116v678h-47v117z" />
<glyph unicode="&#xbd;" horiz-adv-x="1040" d="M720 161q0 116 87 244q83 122 83 225v84q0 33 -27 33q-26 0 -26 -33v-146h-117v93q0 203 143 203t143 -203v-46q0 -61 -22 -121.5t-65 -126.5q-81 -123 -81 -218v-48h168v-117h-286v177zM679 864l-370 -880h-88l371 880h87zM16 779q47 0 47 49v36h116v-880h-116v678h-47 v117z" />
<glyph unicode="&#xbe;" horiz-adv-x="1179" d="M1008 270v226l-19 -91l-38 -135h57zM834 260l178 604h108v-594h43v-116h-43v-170h-112v170h-174v106zM820 864l-370 -880h-88l371 880h87zM204 714q0 33 -27 33q-26 0 -26 -33v-146h-117v93q0 203 143 203t143 -203v-84q0 -101 -53 -145q53 -44 53 -144v-101 q0 -203 -143 -203t-143 203v120h117v-173q0 -33 26 -33q27 0 27 33v207q0 15 -6.5 24t-20.5 9h-42v117h47q22 0 22 33v190z" />
<glyph unicode="&#xbf;" horiz-adv-x="358" d="M259 598h-118v116h118v-116zM141 545h118v-150q0 -115 -57 -182q-49 -58 -49 -157v-72q0 -33 26 -33q27 0 27 33v146h116v-93q0 -202 -143 -202t-143 202v33q0 119 56 187q49 58 49 150v138z" />
<glyph unicode="&#xc0;" horiz-adv-x="342" d="M162 234h49l-18 161l-6 95l-7 -96zM14 -16l116 880h114l116 -880h-117l-17 127h-80l-14 -127h-118zM155 977l82 -86h-84l-142 86h144z" />
<glyph unicode="&#xc1;" horiz-adv-x="342" d="M162 234h49l-18 161l-6 95l-7 -96zM14 -16l116 880h114l116 -880h-117l-17 127h-80l-14 -127h-118zM342 977l-125 -86h-84l82 86h127z" />
<glyph unicode="&#xc2;" horiz-adv-x="342" d="M162 234h49l-18 161l-6 95l-7 -96zM14 -16l116 880h114l116 -880h-117l-17 127h-80l-14 -127h-118zM158 977h59l121 -86h-135l-16 27l-16 -27h-136z" />
<glyph unicode="&#xc3;" horiz-adv-x="342" d="M162 234h49l-18 161l-6 95l-7 -96zM14 -16l116 880h114l116 -880h-117l-17 127h-80l-14 -127h-118zM73 891v18q0 30 18 49t45 19q12 0 25 -3l27 -8q13 -3 25 -6.5t22 -3.5q3 1 5 21h62q0 -45 -17 -65.5t-44 -20.5q-12 0 -26 3l-28 8q-14 3 -25.5 6.5t-18.5 3.5h-5 q-3 0 -4 -21h-61z" />
<glyph unicode="&#xc4;" horiz-adv-x="342" d="M162 234h49l-18 161l-6 95l-7 -96zM14 -16l116 880h114l116 -880h-117l-17 127h-80l-14 -127h-118zM73 977h83v-86h-83v86zM218 891v86h83v-86h-83z" />
<glyph unicode="&#xc5;" horiz-adv-x="342" d="M162 234h49l-18 161l-6 95l-7 -96zM14 -16l116 880h114l116 -880h-117l-17 127h-80l-14 -127h-118zM158 938q0 -12 8.5 -20.5t20.5 -8.5t20.5 8.5t8.5 20.5t-8.5 20.5t-20.5 8.5t-20.5 -8.5t-8.5 -20.5zM112 938q0 31 22 53.5t53 22.5t53.5 -22.5t22.5 -53.5t-22.5 -53 t-53.5 -22t-53 22t-22 53z" />
<glyph unicode="&#xc6;" horiz-adv-x="430" d="M200 370v72l-13 -72h13zM200 -16v268h-34l-48 -268h-119l159 880h247v-117h-88v-377h53v-118h-53v-151h88v-117h-205z" />
<glyph unicode="&#xc7;" horiz-adv-x="346" d="M220 307h112v-120q0 -203 -139 -203q-143 0 -143 203v474q0 203 143 203q139 0 139 -203v-93h-112v146q0 33 -27 33q-26 0 -26 -33v-580q0 -33 26 -33q27 0 27 33v173zM221 -2q0 -12 7 -21t16 -19.5t16 -24t7 -32.5q0 -66 -70 -66q-68 0 -68 63v21h64q-4 8 -13 14 q-26 24 -26 63v26h67v-24zM199 -103q0 2 -0.5 3t-0.5 2v-8q0 1 0.5 1.5t0.5 1.5z" />
<glyph unicode="&#xc8;" horiz-adv-x="302" d="M167 374v-273h130v-117h-247v880h247v-117h-130v-256h74v-117h-74zM166 977l82 -86h-84l-142 86h144z" />
<glyph unicode="&#xc9;" horiz-adv-x="302" d="M167 374v-273h130v-117h-247v880h247v-117h-130v-256h74v-117h-74zM281 977l-125 -86h-84l82 86h127z" />
<glyph unicode="&#xca;" horiz-adv-x="302" d="M167 374v-273h130v-117h-247v880h247v-117h-130v-256h74v-117h-74zM146 973h59l121 -86h-135l-16 27l-16 -27h-136z" />
<glyph unicode="&#xcb;" horiz-adv-x="302" d="M167 374v-273h130v-117h-247v880h247v-117h-130v-256h74v-117h-74zM59 977h83v-86h-83v86zM204 891v86h83v-86h-83z" />
<glyph unicode="&#xcc;" horiz-adv-x="184" d="M50 -16v880h117v-880h-117zM107 977l82 -86h-84l-142 86h144z" />
<glyph unicode="&#xcd;" horiz-adv-x="184" d="M50 -16v880h117v-880h-117zM236 977l-125 -86h-84l82 86h127z" />
<glyph unicode="&#xce;" horiz-adv-x="184" d="M50 -16v880h117v-880h-117zM82 977h59l121 -86h-135l-16 27l-16 -27h-136z" />
<glyph unicode="&#xcf;" horiz-adv-x="184" d="M50 -16v880h117v-880h-117zM-2 977h83v-86h-83v86zM143 891v86h83v-86h-83z" />
<glyph unicode="&#xd0;" horiz-adv-x="354" d="M18 482h32v382h143q143 0 143 -203v-474q0 -203 -143 -203h-143v399h-32v99zM220 714q0 33 -27 33h-26v-265h25v-99h-25v-282h26q27 0 27 33v580z" />
<glyph unicode="&#xd1;" horiz-adv-x="382" d="M177 295l-19 136v-447h-108v880h131l57 -313l18 -133v446h108v-880h-132zM94 891v18q0 30 18 49t45 19q12 0 25 -3l27 -8q13 -3 25 -6.5t22 -3.5q3 1 5 21h62q0 -45 -17 -65.5t-44 -20.5q-12 0 -26 3l-28 8q-14 3 -25.5 6.5t-18.5 3.5h-5q-3 0 -4 -21h-61z" />
<glyph unicode="&#xd2;" horiz-adv-x="354" d="M220 714q0 33 -27 33q-26 0 -26 -33v-580q0 -33 26 -33q27 0 27 33v580zM336 187q0 -203 -143 -203t-143 203v474q0 203 143 203t143 -203v-474zM171 977l82 -86h-84l-142 86h144z" />
<glyph unicode="&#xd3;" horiz-adv-x="354" d="M220 714q0 33 -27 33q-26 0 -26 -33v-580q0 -33 26 -33q27 0 27 33v580zM336 187q0 -203 -143 -203t-143 203v474q0 203 143 203t143 -203v-474zM327 977l-125 -86h-84l82 86h127z" />
<glyph unicode="&#xd4;" horiz-adv-x="354" d="M220 714q0 33 -27 33q-26 0 -26 -33v-580q0 -33 26 -33q27 0 27 33v580zM336 187q0 -203 -143 -203t-143 203v474q0 203 143 203t143 -203v-474zM163 977h59l121 -86h-135l-16 27l-16 -27h-136z" />
<glyph unicode="&#xd5;" horiz-adv-x="354" d="M220 714q0 33 -27 33q-26 0 -26 -33v-580q0 -33 26 -33q27 0 27 33v580zM336 187q0 -203 -143 -203t-143 203v474q0 203 143 203t143 -203v-474zM81 891v18q0 30 18 49t45 19q12 0 25 -3l27 -8q13 -3 25 -6.5t22 -3.5q3 1 5 21h62q0 -45 -17 -65.5t-44 -20.5q-12 0 -26 3 l-28 8q-14 3 -25.5 6.5t-18.5 3.5h-5q-3 0 -4 -21h-61z" />
<glyph unicode="&#xd6;" horiz-adv-x="354" d="M220 714q0 33 -27 33q-26 0 -26 -33v-580q0 -33 26 -33q27 0 27 33v580zM336 187q0 -203 -143 -203t-143 203v474q0 203 143 203t143 -203v-474zM78 977h83v-86h-83v86zM223 891v86h83v-86h-83z" />
<glyph unicode="&#xd7;" horiz-adv-x="316" d="M294 496l-65 -65l64 -63l-71 -71l-64 63l-65 -64l-71 71l64 64l-64 65l71 71l65 -64l65 64z" />
<glyph unicode="&#xd8;" horiz-adv-x="354" d="M220 714q0 33 -27 33q-26 0 -26 -33v-580q0 -33 26 -33q27 0 27 33v580zM336 187q0 -203 -143 -203t-143 203v474q0 203 143 203t143 -203v-474zM315 864l-168 -880h-85l168 880h85z" />
<glyph unicode="&#xd9;" horiz-adv-x="354" d="M220 864h116v-677q0 -203 -143 -203t-143 203v677h117v-730q0 -33 26 -33q27 0 27 33v730zM174 977l82 -86h-84l-142 86h144z" />
<glyph unicode="&#xda;" horiz-adv-x="354" d="M220 864h116v-677q0 -203 -143 -203t-143 203v677h117v-730q0 -33 26 -33q27 0 27 33v730zM303 977l-125 -86h-84l82 86h127z" />
<glyph unicode="&#xdb;" horiz-adv-x="354" d="M220 864h116v-677q0 -203 -143 -203t-143 203v677h117v-730q0 -33 26 -33q27 0 27 33v730zM163 977h59l121 -86h-135l-16 27l-16 -27h-136z" />
<glyph unicode="&#xdc;" horiz-adv-x="354" d="M220 864h116v-677q0 -203 -143 -203t-143 203v677h117v-730q0 -33 26 -33q27 0 27 33v730zM78 977h83v-86h-83v86zM223 891v86h83v-86h-83z" />
<glyph unicode="&#xdd;" horiz-adv-x="339" d="M127 -16v375l-115 505h121l37 -191l16 -127l15 126l37 192h121l-115 -505v-375h-117zM284 977l-125 -86h-84l82 86h127z" />
<glyph unicode="&#xde;" horiz-adv-x="358" d="M151 530v-223h30q39 0 39 42v140q0 41 -40 41h-29zM34 864h117v-217h29q157 0 157 -211v-34q0 -211 -156 -211h-30v-207h-117v880z" />
<glyph unicode="&#xdf;" horiz-adv-x="332" d="M194 726q0 33 -27 33q-26 0 -26 -33v-241q53 0 53 33v208zM194 348q0 30 -53 33v-397h-105v699q0 181 131 181q133 0 133 -181v-128q0 -83 -34 -123q34 -40 34 -122v-145q0 -181 -136 -181v105q30 0 30 33v226z" />
<glyph unicode="&#xe0;" horiz-adv-x="319" d="M50 197q0 39 15 67t37.5 49.5t47.5 38.5l46 30v129q0 26 -18 26q-16 0 -16 -26v-134h-105v103q0 166 121 166q123 0 123 -166v-496h-105v28q-21 -28 -54 -28q-92 0 -92 165v48zM196 255l-16 -9q-8 -5 -13.5 -12t-8.5 -17.5t-3 -27.5v-70q0 -28 18 -28q23 0 23 28v136z M171 237l-1 -1v1h1zM159 759l82 -86h-84l-142 86h144z" />
<glyph unicode="&#xe1;" horiz-adv-x="319" d="M50 197q0 39 15 67t37.5 49.5t47.5 38.5l46 30v129q0 26 -18 26q-16 0 -16 -26v-134h-105v103q0 166 121 166q123 0 123 -166v-496h-105v28q-21 -28 -54 -28q-92 0 -92 165v48zM196 255l-16 -9q-8 -5 -13.5 -12t-8.5 -17.5t-3 -27.5v-70q0 -28 18 -28q23 0 23 28v136z M171 237l-1 -1v1h1zM310 759l-125 -86h-84l82 86h127z" />
<glyph unicode="&#xe2;" horiz-adv-x="319" d="M50 197q0 39 15 67t37.5 49.5t47.5 38.5l46 30v129q0 26 -18 26q-16 0 -16 -26v-134h-105v103q0 166 121 166q123 0 123 -166v-496h-105v28q-21 -28 -54 -28q-92 0 -92 165v48zM196 255l-16 -9q-8 -5 -13.5 -12t-8.5 -17.5t-3 -27.5v-70q0 -28 18 -28q23 0 23 28v136z M171 237l-1 -1v1h1zM155 759h59l121 -86h-135l-16 27l-16 -27h-136z" />
<glyph unicode="&#xe3;" horiz-adv-x="319" d="M50 197q0 39 15 67t37.5 49.5t47.5 38.5l46 30v129q0 26 -18 26q-16 0 -16 -26v-134h-105v103q0 166 121 166q123 0 123 -166v-496h-105v28q-21 -28 -54 -28q-92 0 -92 165v48zM196 255l-16 -9q-8 -5 -13.5 -12t-8.5 -17.5t-3 -27.5v-70q0 -28 18 -28q23 0 23 28v136z M171 237l-1 -1v1h1zM66 673v18q0 30 18 49t45 19q12 0 25 -3l27 -8q13 -3 25 -6.5t22 -3.5q3 1 5 21h62q0 -45 -17 -65.5t-44 -20.5q-12 0 -26 3l-28 8q-14 3 -25.5 6.5t-18.5 3.5h-5q-3 0 -4 -21h-61z" />
<glyph unicode="&#xe4;" horiz-adv-x="319" d="M50 197q0 39 15 67t37.5 49.5t47.5 38.5l46 30v129q0 26 -18 26q-16 0 -16 -26v-134h-105v103q0 166 121 166q123 0 123 -166v-496h-105v28q-21 -28 -54 -28q-92 0 -92 165v48zM196 255l-16 -9q-8 -5 -13.5 -12t-8.5 -17.5t-3 -27.5v-70q0 -28 18 -28q23 0 23 28v136z M171 237l-1 -1v1h1zM61 759h83v-86h-83v86zM206 673v86h83v-86h-83z" />
<glyph unicode="&#xe5;" horiz-adv-x="319" d="M50 197q0 39 15 67t37.5 49.5t47.5 38.5l46 30v129q0 26 -18 26q-16 0 -16 -26v-134h-105v103q0 166 121 166q123 0 123 -166v-496h-105v28q-21 -28 -54 -28q-92 0 -92 165v48zM196 255l-16 -9q-8 -5 -13.5 -12t-8.5 -17.5t-3 -27.5v-70q0 -28 18 -28q23 0 23 28v136z M171 237l-1 -1v1h1zM148 720q0 -12 8.5 -20.5t20.5 -8.5t20.5 8.5t8.5 20.5t-8.5 20.5t-20.5 8.5t-20.5 -8.5t-8.5 -20.5zM102 720q0 31 22 53.5t53 22.5t53.5 -22.5t22.5 -53.5t-22.5 -53t-53.5 -22t-53 22t-22 53z" />
<glyph unicode="&#xe6;" horiz-adv-x="466" d="M180 255q-20 -9 -30.5 -24t-10.5 -42v-70q0 -28 20 -28q21 0 21 28v136zM285 391h43v120q0 26 -23 26q-20 0 -20 -26v-120zM285 285v-166q0 -28 20 -28q23 0 23 28v136h104v-106q0 -165 -120 -165q-47 0 -81 31q-27 -31 -73 -31q-124 0 -124 165v48q0 39 15 67t37.5 49.5 t47.5 38.5l46 30v129q0 26 -18 26q-16 0 -16 -26v-134h-105v103q0 166 121 166q43 0 70 -29q32 29 73 29q127 0 127 -166v-195h-147z" />
<glyph unicode="&#xe7;" horiz-adv-x="316" d="M197 511q0 26 -22 26q-20 0 -20 -26v-392q0 -28 20 -28q22 0 22 28v136h105v-106q0 -165 -127 -165q-125 0 -125 165v331q0 166 125 166q127 0 127 -166v-103h-105v134zM209 -2q0 -12 7 -21t16 -19.5t16 -24t7 -32.5q0 -66 -70 -66q-68 0 -68 63v21h64q-4 8 -13 14 q-26 24 -26 63v26h67v-24zM187 -103q0 2 -0.5 3t-0.5 2v-8q0 1 0.5 1.5t0.5 1.5z" />
<glyph unicode="&#xe8;" d="M155 391h42v120q0 26 -22 26q-20 0 -20 -26v-120zM155 285v-166q0 -28 20 -28q22 0 22 28v136h105v-106q0 -165 -127 -165q-125 0 -125 165v331q0 166 125 166q127 0 127 -166v-195h-147zM169 759l82 -86h-84l-142 86h144z" />
<glyph unicode="&#xe9;" d="M155 391h42v120q0 26 -22 26q-20 0 -20 -26v-120zM155 285v-166q0 -28 20 -28q22 0 22 28v136h105v-106q0 -165 -127 -165q-125 0 -125 165v331q0 166 125 166q127 0 127 -166v-195h-147zM306 759l-125 -86h-84l82 86h127z" />
<glyph unicode="&#xea;" d="M155 391h42v120q0 26 -22 26q-20 0 -20 -26v-120zM155 285v-166q0 -28 20 -28q22 0 22 28v136h105v-106q0 -165 -127 -165q-125 0 -125 165v331q0 166 125 166q127 0 127 -166v-195h-147zM147 759h59l121 -86h-135l-16 27l-16 -27h-136z" />
<glyph unicode="&#xeb;" d="M155 391h42v120q0 26 -22 26q-20 0 -20 -26v-120zM155 285v-166q0 -28 20 -28q22 0 22 28v136h105v-106q0 -165 -127 -165q-125 0 -125 165v331q0 166 125 166q127 0 127 -166v-195h-147zM62 759h83v-86h-83v86zM207 673v86h83v-86h-83z" />
<glyph unicode="&#xec;" horiz-adv-x="181" d="M161 -16h-105v662h105v-662zM89 759l82 -86h-84l-142 86h144z" />
<glyph unicode="&#xed;" horiz-adv-x="181" d="M161 -16h-105v662h105v-662zM264 759l-125 -86h-84l82 86h127z" />
<glyph unicode="&#xee;" horiz-adv-x="181" d="M161 -16h-105v662h105v-662zM83 759h59l121 -86h-135l-16 27l-16 -27h-136z" />
<glyph unicode="&#xef;" horiz-adv-x="181" d="M161 -16h-105v662h105v-662zM-2 759h83v-86h-83v86zM143 673v86h83v-86h-83z" />
<glyph unicode="&#xf0;" horiz-adv-x="354" d="M149 134q0 -33 27 -33q26 0 26 33v258q-1 31 -26 31q-27 0 -27 -34v-255zM33 661q0 203 143 203t143 -203v-474q0 -203 -143 -203t-143 203v150q0 203 143 203q13 0 26 -5v179q0 33 -26 33q-27 0 -27 -33v-146h-116v93z" />
<glyph unicode="&#xf1;" d="M197 511q0 26 -21 26t-21 -26v-527h-105v662h105v-18q21 18 55 18q92 0 92 -166v-496h-105v527zM58 673v18q0 30 18 49t45 19q12 0 25 -3l27 -8q13 -3 25 -6.5t22 -3.5q3 1 5 21h62q0 -45 -17 -65.5t-44 -20.5q-12 0 -26 3l-28 8q-14 3 -25.5 6.5t-18.5 3.5h-5 q-3 0 -4 -21h-61z" />
<glyph unicode="&#xf2;" d="M197 511q0 26 -22 26q-20 0 -20 -26v-392q0 -28 20 -28q22 0 22 28v392zM302 149q0 -165 -127 -165q-125 0 -125 165v331q0 166 125 166q127 0 127 -166v-331zM164 759l82 -86h-84l-142 86h144z" />
<glyph unicode="&#xf3;" d="M197 511q0 26 -22 26q-20 0 -20 -26v-392q0 -28 20 -28q22 0 22 28v392zM302 149q0 -165 -127 -165q-125 0 -125 165v331q0 166 125 166q127 0 127 -166v-331zM284 759l-125 -86h-84l82 86h127z" />
<glyph unicode="&#xf4;" d="M197 511q0 26 -22 26q-20 0 -20 -26v-392q0 -28 20 -28q22 0 22 28v392zM302 149q0 -165 -127 -165q-125 0 -125 165v331q0 166 125 166q127 0 127 -166v-331zM149 759h59l121 -86h-135l-16 27l-16 -27h-136z" />
<glyph unicode="&#xf5;" d="M197 511q0 26 -22 26q-20 0 -20 -26v-392q0 -28 20 -28q22 0 22 28v392zM302 149q0 -165 -127 -165q-125 0 -125 165v331q0 166 125 166q127 0 127 -166v-331zM65 673v18q0 30 18 49t45 19q12 0 25 -3l27 -8q13 -3 25 -6.5t22 -3.5q3 1 5 21h62q0 -45 -17 -65.5 t-44 -20.5q-12 0 -26 3l-28 8q-14 3 -25.5 6.5t-18.5 3.5h-5q-3 0 -4 -21h-61z" />
<glyph unicode="&#xf6;" d="M197 511q0 26 -22 26q-20 0 -20 -26v-392q0 -28 20 -28q22 0 22 28v392zM302 149q0 -165 -127 -165q-125 0 -125 165v331q0 166 125 166q127 0 127 -166v-331zM62 759h83v-86h-83v86zM207 673v86h83v-86h-83z" />
<glyph unicode="&#xf7;" horiz-adv-x="354" d="M118 644h108v-133h-108v133zM118 354h108v-134h-108v134zM11 482h330v-99h-330v99z" />
<glyph unicode="&#xf8;" d="M197 511q0 26 -22 26q-20 0 -20 -26v-392q0 -28 20 -28q22 0 22 28v392zM302 149q0 -165 -127 -165q-125 0 -125 165v331q0 166 125 166q127 0 127 -166v-331zM265.446 642.621l-124.964 -654.521h-63.2266l124.965 654.521h63.2256z" />
<glyph unicode="&#xf9;" d="M155 119q0 -27 21 -27t21 27v527h105v-662h-105v18q-21 -18 -55 -18q-92 0 -92 165v497h105v-527zM166 759l82 -86h-84l-142 86h144z" />
<glyph unicode="&#xfa;" d="M155 119q0 -27 21 -27t21 27v527h105v-662h-105v18q-21 -18 -55 -18q-92 0 -92 165v497h105v-527zM293 759l-125 -86h-84l82 86h127z" />
<glyph unicode="&#xfb;" d="M155 119q0 -27 21 -27t21 27v527h105v-662h-105v18q-21 -18 -55 -18q-92 0 -92 165v497h105v-527zM146 759h59l121 -86h-135l-16 27l-16 -27h-136z" />
<glyph unicode="&#xfc;" d="M155 119q0 -27 21 -27t21 27v527h105v-662h-105v18q-21 -18 -55 -18q-92 0 -92 165v497h105v-527zM61 759h83v-86h-83v86zM206 673v86h83v-86h-83z" />
<glyph unicode="&#xfd;" horiz-adv-x="293" d="M36 -58q65 5 74 58l-88 646h107l22 -172l10 -160l11 158l22 174h108l-86 -648q-11 -85 -57.5 -124t-122.5 -39v107zM276 759l-125 -86h-84l82 86h127z" />
<glyph unicode="&#xfe;" d="M181 511q0 26 -21 26t-21 -26v-392q0 -28 21 -28t21 28v392zM34 864h105v-226q22 8 44 8q103 0 103 -166v-331q0 -165 -111 -165q-25 0 -36 4v-153h-105v1029z" />
<glyph unicode="&#xff;" horiz-adv-x="293" d="M36 -58q65 5 74 58l-88 646h107l22 -172l10 -160l11 158l22 174h108l-86 -648q-11 -85 -57.5 -124t-122.5 -39v107zM48 759h83v-86h-83v86zM193 673v86h83v-86h-83z" />
<glyph unicode="&#x102;" horiz-adv-x="342" d="M162 234h49l-18 161l-6 95l-7 -96zM14 -16l116 880h114l116 -880h-117l-17 127h-80l-14 -127h-118zM312 977q-38 -86 -127 -86q-105 0 -119 86h101q0 -42 19 -42t19 42h107z" />
<glyph unicode="&#x103;" horiz-adv-x="319" d="M50 197q0 39 15 67t37.5 49.5t47.5 38.5l46 30v129q0 26 -18 26q-16 0 -16 -26v-134h-105v103q0 166 121 166q123 0 123 -166v-496h-105v28q-21 -28 -54 -28q-92 0 -92 165v48zM196 255l-16 -9q-8 -5 -13.5 -12t-8.5 -17.5t-3 -27.5v-70q0 -28 18 -28q23 0 23 28v136z M171 237l-1 -1v1h1zM305 759q-38 -86 -127 -86q-105 0 -119 86h101q0 -42 19 -42t19 42h107z" />
<glyph unicode="&#x104;" horiz-adv-x="342" d="M162 234h49l-18 161l-6 95l-7 -96zM14 -16l116 880h114l116 -880h-117l-17 127h-80l-14 -127h-118zM269 22h68v-26q0 -41 -27 -63q-9 -6 -13 -14h65v-21q0 -63 -68 -63q-70 0 -70 66q0 19 7 32.5t15 24.5l16 19q7 9 7 21v24zM293 -92q-1 -1 -1 -11q0 -5 1 -6v17z" />
<glyph unicode="&#x105;" horiz-adv-x="319" d="M50 197q0 39 15 67t37.5 49.5t47.5 38.5l46 30v129q0 26 -18 26q-16 0 -16 -26v-134h-105v103q0 166 121 166q123 0 123 -166v-496h-105v28q-21 -28 -54 -28q-92 0 -92 165v48zM196 255l-16 -9q-8 -5 -13.5 -12t-8.5 -17.5t-3 -27.5v-70q0 -28 18 -28q23 0 23 28v136z M171 237l-1 -1v1h1zM218 22h68v-26q0 -41 -27 -63q-9 -6 -13 -14h65v-21q0 -63 -68 -63q-70 0 -70 66q0 19 7 32.5t15 24.5l16 19q7 9 7 21v24zM242 -92q-1 -1 -1 -11q0 -5 1 -6v17z" />
<glyph unicode="&#x106;" horiz-adv-x="346" d="M220 307h112v-120q0 -203 -139 -203q-143 0 -143 203v474q0 203 143 203q139 0 139 -203v-93h-112v146q0 33 -27 33q-26 0 -26 -33v-580q0 -33 26 -33q27 0 27 33v173zM317 977l-125 -86h-84l82 86h127z" />
<glyph unicode="&#x107;" horiz-adv-x="316" d="M197 511q0 26 -22 26q-20 0 -20 -26v-392q0 -28 20 -28q22 0 22 28v136h105v-106q0 -165 -127 -165q-125 0 -125 165v331q0 166 125 166q127 0 127 -166v-103h-105v134zM294 759l-125 -86h-84l82 86h127z" />
<glyph unicode="&#x118;" horiz-adv-x="302" d="M167 374v-273h130v-117h-247v880h247v-117h-130v-256h74v-117h-74zM130 22h68v-26q0 -41 -27 -63q-9 -6 -13 -14h65v-21q0 -63 -68 -63q-70 0 -70 66q0 19 7 32.5t15 24.5l16 19q7 9 7 21v24zM154 -92q-1 -1 -1 -11q0 -5 1 -6v17z" />
<glyph unicode="&#x119;" d="M155 391h42v120q0 26 -22 26q-20 0 -20 -26v-120zM155 285v-166q0 -28 20 -28q22 0 22 28v136h105v-106q0 -165 -127 -165q-125 0 -125 165v331q0 166 125 166q127 0 127 -166v-195h-147zM95 22h68v-26q0 -41 -27 -63q-9 -6 -13 -14h65v-21q0 -63 -68 -63q-70 0 -70 66 q0 19 7 32.5t15 24.5l16 19q7 9 7 21v24zM119 -92q-1 -1 -1 -11q0 -5 1 -6v17z" />
<glyph unicode="&#x131;" horiz-adv-x="181" d="M145 -16h-105v662h105v-662z" />
<glyph unicode="&#x141;" horiz-adv-x="293" d="M151 502v-401h130v-117h-247v451l-35 -21l-38 64l73 41v345h117v-277l45 27l37 -63z" />
<glyph unicode="&#x142;" horiz-adv-x="155" d="M218 559l-89 -52v-523h-105v462l-53 -29l-37 62l90 51v334h105v-273l51 31z" />
<glyph unicode="&#x143;" horiz-adv-x="382" d="M177 295l-19 136v-447h-108v880h131l57 -313l18 -133v446h108v-880h-132zM325 977l-125 -86h-84l82 86h127z" />
<glyph unicode="&#x144;" d="M197 511q0 26 -21 26t-21 -26v-527h-105v662h105v-18q21 18 55 18q92 0 92 -166v-496h-105v527zM289 759l-125 -86h-84l82 86h127z" />
<glyph unicode="&#x152;" horiz-adv-x="449" d="M204 714q0 33 -27 33q-26 0 -26 -33v-580q0 -33 26 -33q27 0 27 33v580zM320 374v-273h109v-117h-225v18q-32 -18 -53 -18q-117 0 -117 203v474q0 203 114 203q34 0 56 -19v19h225v-117h-109v-256h53v-117h-53z" />
<glyph unicode="&#x153;" horiz-adv-x="444" d="M277 391h42v120q0 26 -22 26q-20 0 -20 -26v-120zM172 511q0 26 -23 26q-20 0 -20 -26v-392q0 -28 20 -28q23 0 23 28v392zM277 285v-166q0 -28 20 -28q22 0 22 28v136h105v-106q0 -165 -127 -165q-44 0 -73 29q-32 -29 -75 -29q-125 0 -125 165v331q0 166 125 166 q45 0 75 -30q28 30 73 30q127 0 127 -166v-195h-147z" />
<glyph unicode="&#x15a;" horiz-adv-x="341" d="M207 714q0 33 -20 33t-20 -33v-115q0 -50 75 -150q81 -110 81 -188v-74q0 -203 -136 -203q-137 0 -137 203v120h117v-173q0 -33 20 -33t20 33v97q0 72 -75 170q-82 106 -82 206v54q0 203 137 203q136 0 136 -203v-93h-116v146zM316 977l-125 -86h-84l82 86h127z" />
<glyph unicode="&#x15b;" horiz-adv-x="291" d="M180 514q0 28 -18 28q-16 0 -16 -28v-58q0 -24 16.5 -54t48.5 -69q36 -45 54 -90.5t18 -84.5q0 -174 -121 -174q-120 0 -120 177v44h98v-89q0 -28 19 -28t19 28v58q0 48 -63 114q-73 76 -73 182q0 176 118 176q119 0 119 -176v-49h-99v93zM278 759l-125 -86h-84l82 86 h127z" />
<glyph unicode="&#x162;" horiz-adv-x="293" d="M19 864h286v-117h-84v-763h-117v763h-85v117zM199 -2q0 -12 7 -21t16 -19.5t16 -24t7 -32.5q0 -66 -70 -66q-68 0 -68 63v21h64q-4 8 -13 14q-26 24 -26 63v26h67v-24zM177 -103q0 2 -0.5 3t-0.5 2v-8q0 1 0.5 1.5t0.5 1.5z" />
<glyph unicode="&#x163;" horiz-adv-x="198" d="M21 646h30v218h105v-218h34v-109h-34v-418q0 -27 39 -27v-108q-144 0 -144 165v388h-30v109zM164 -2q0 -12 7 -21t16 -19.5t16 -24t7 -32.5q0 -66 -70 -66q-68 0 -68 63v21h64q-4 8 -13 14q-26 24 -26 63v26h67v-24zM142 -103q0 2 -0.5 3t-0.5 2v-8q0 1 0.5 1.5t0.5 1.5z " />
<glyph unicode="&#x178;" horiz-adv-x="339" d="M127 -16v375l-115 505h121l37 -191l16 -127l15 126l37 192h121l-115 -505v-375h-117zM68 977h83v-86h-83v86zM213 891v86h83v-86h-83z" />
<glyph unicode="&#x179;" horiz-adv-x="317" d="M40 864h277v-124l-163 -639h163v-117h-285v116l171 647h-163v117zM293 977l-125 -86h-84l82 86h127z" />
<glyph unicode="&#x17a;" horiz-adv-x="288" d="M49 646h226v-106l-121 -449h120v-107h-228v99l125 454h-122v109zM295 759l-125 -86h-84l82 86h127z" />
<glyph unicode="&#x17b;" horiz-adv-x="317" d="M40 864h277v-124l-163 -639h163v-117h-285v116l171 647h-163v117zM129 977h89v-86h-89v86z" />
<glyph unicode="&#x17c;" horiz-adv-x="288" d="M49 646h226v-106l-121 -449h120v-107h-228v99l125 454h-122v109zM116 759h89v-86h-89v86z" />
<glyph unicode="&#x192;" horiz-adv-x="399" d="M-19 -57q50 0 64 44l147 550h-26v109h53l15 57q21 81 65 121t108 40v-108q-51 0 -60 -31l-22 -79h26v-109h-54l-145 -541q-22 -81 -66 -121t-105 -40v108z" />
<glyph unicode="&#x218;" horiz-adv-x="341" d="M207 714q0 33 -20 33t-20 -33v-115q0 -50 75 -150q81 -110 81 -188v-74q0 -203 -136 -203q-137 0 -137 203v120h117v-173q0 -33 20 -33t20 33v97q0 72 -75 170q-82 106 -82 206v54q0 203 137 203q136 0 136 -203v-93h-116v146zM213 -2q0 -12 7 -21t16 -19.5t16 -24 t7 -32.5q0 -66 -70 -66q-68 0 -68 63v21h64q-4 8 -13 14q-26 24 -26 63v26h67v-24zM191 -103q0 2 -0.5 3t-0.5 2v-8q0 1 0.5 1.5t0.5 1.5z" />
<glyph unicode="&#x219;" horiz-adv-x="291" d="M180 514q0 28 -18 28q-16 0 -16 -28v-58q0 -24 16.5 -54t48.5 -69q36 -45 54 -90.5t18 -84.5q0 -174 -121 -174q-120 0 -120 177v44h98v-89q0 -28 19 -28t19 28v58q0 48 -63 114q-73 76 -73 182q0 176 118 176q119 0 119 -176v-49h-99v93zM191 -2q0 -12 7 -21t16 -19.5 t16 -24t7 -32.5q0 -66 -70 -66q-68 0 -68 63v21h64q-4 8 -13 14q-26 24 -26 63v26h67v-24zM169 -103q0 2 -0.5 3t-0.5 2v-8q0 1 0.5 1.5t0.5 1.5z" />
<glyph unicode="&#x2c6;" horiz-adv-x="251" d="M98 977h59l121 -86h-135l-16 27l-16 -27h-136z" />
<glyph unicode="&#x2c7;" horiz-adv-x="258" d="M155 890h-60l-120 86h134l16 -27l16 27h137z" />
<glyph unicode="&#x2d8;" horiz-adv-x="258" d="M251 977q-38 -86 -127 -86q-105 0 -119 86h101q0 -42 19 -42t19 42h107z" />
<glyph unicode="&#x2d9;" horiz-adv-x="149" d="M34 977h89v-86h-89v86z" />
<glyph unicode="&#x2da;" horiz-adv-x="179" d="M60 938q0 -12 8.5 -20.5t20.5 -8.5t20.5 8.5t8.5 20.5t-8.5 20.5t-20.5 8.5t-20.5 -8.5t-8.5 -20.5zM14 938q0 31 22 53.5t53 22.5t53.5 -22.5t22.5 -53.5t-22.5 -53t-53.5 -22t-53 22t-22 53z" />
<glyph unicode="&#x2db;" horiz-adv-x="218" d="M79 22h68v-26q0 -41 -27 -63q-9 -6 -13 -14h65v-21q0 -63 -68 -63q-70 0 -70 66q0 19 7 32.5t15 24.5l16 19q7 9 7 21v24zM103 -92q-1 -1 -1 -11q0 -5 1 -6v17z" />
<glyph unicode="&#x2dc;" horiz-adv-x="252" d="M13 891v18q0 30 18 49t45 19q12 0 25 -3l27 -8q13 -3 25 -6.5t22 -3.5q3 1 5 21h62q0 -45 -17 -65.5t-44 -20.5q-12 0 -26 3l-28 8q-14 3 -25.5 6.5t-18.5 3.5h-5q-3 0 -4 -21h-61z" />
<glyph unicode="&#x2dd;" horiz-adv-x="285" d="M174 891h-70l112 86h101zM100 977h81l-111 -86h-94z" />
<glyph unicode="&#x2000;" horiz-adv-x="507" />
<glyph unicode="&#x2001;" horiz-adv-x="1014" />
<glyph unicode="&#x2002;" horiz-adv-x="507" />
<glyph unicode="&#x2003;" horiz-adv-x="1014" />
<glyph unicode="&#x2004;" horiz-adv-x="338" />
<glyph unicode="&#x2005;" horiz-adv-x="253" />
<glyph unicode="&#x2006;" horiz-adv-x="169" />
<glyph unicode="&#x2007;" horiz-adv-x="169" />
<glyph unicode="&#x2008;" horiz-adv-x="126" />
<glyph unicode="&#x2010
</p>
<p>
;" horiz-adv-x="202" />
<glyph unicode="&#x200a;" horiz-adv-x="56" />
<glyph unicode="&#x2010;" horiz-adv-x="208" d="M17 482h174v-99h-174v99z" />
<glyph unicode="&#x2011;" horiz-adv-x="208" d="M17 482h174v-99h-174v99z" />
<glyph unicode="&#x2013;" horiz-adv-x="321" d="M17 482h280v-99h-280v99z" />
<glyph unicode="&#x2014;" horiz-adv-x="496" d="M17 482h457v-99h-457v99z" />
<glyph unicode="&#x2018;" horiz-adv-x="138" d="M126 670h-108v101q0 93 77 93h18v-58q-21 0 -25 -16h38v-120z" />
<glyph unicode="&#x2019;" horiz-adv-x="144" d="M24 865h108v-101q0 -93 -77 -93h-18v58q17 0 26 16h-39v120z" />
<glyph unicode="&#x201a;" horiz-adv-x="152" d="M35 118h108v-101q0 -93 -77 -93h-18v49q22 0 25 25h-38v120z" />
<glyph unicode="&#x201c;" horiz-adv-x="260" d="M129 670h-108v101q0 93 78 93h18v-58q-22 0 -26 -16h38v-120zM257 670h-109v101q0 93 78 93h18v-58q-22 0 -26 -16h39v-120z" />
<glyph unicode="&#x201d;" horiz-adv-x="263" d="M148 864h109v-101q0 -93 -78 -93h-18v58q20 0 26 16h-39v120zM21 864h108v-101q0 -93 -77 -93h-18v58q21 0 25 16h-38v120z" />
<glyph unicode="&#x201e;" horiz-adv-x="268" d="M171 118h108v-101q0 -93 -77 -93h-18v49q22 0 25 25h-38v120zM35 118h108v-101q0 -93 -77 -93h-18v49q22 0 25 25h-38v120z" />
<glyph unicode="&#x2020;" horiz-adv-x="305" d="M20 775l79 -15l-16 78h134l-15 -78l80 17v-135l-84 15l16 -637h-126l15 637l-83 -15v133z" />
<glyph unicode="&#x2021;" horiz-adv-x="305" d="M281 73l-80 15l17 -78h-134l15 77l-80 -16v135l85 -16v467l-84 -15v133l79 -15l-16 78h134l-15 -78l80 17v-135l-85 15v-467l84 16v-133z" />
<glyph unicode="&#x2022;" horiz-adv-x="516" d="M19 347q0 49 19 93t51.5 76.5t76.5 51.5t94 19q49 0 93 -19t76.5 -51.5t51.5 -76.5t19 -93q0 -50 -19 -94t-51.5 -76.5t-76.5 -51.5t-93 -19q-50 0 -94 19t-76.5 51.5t-51.5 76.5t-19 94z" />
<glyph unicode="&#x2026;" horiz-adv-x="976" d="M149 118h108v-134h-108v134zM431 118h108v-134h-108v134zM713 118h108v-134h-108v134z" />
<glyph unicode="&#x202f;" horiz-adv-x="202" />
<glyph unicode="&#x2039;" horiz-adv-x="406" d="M209 273l144 -252h-111l-176 252l176 252h112z" />
<glyph unicode="&#x203a;" horiz-adv-x="416" d="M60 21l147 252l-147 252h115l173 -250l-174 -254h-114z" />
<glyph unicode="&#x2044;" horiz-adv-x="473" d="M466 864l-370 -880h-88l371 880h87z" />
<glyph unicode="&#x205f;" horiz-adv-x="253" />
<glyph unicode="&#x20ac;" horiz-adv-x="350" d="M220 307h112v-120q0 -203 -139 -203q-143 0 -143 203v474q0 203 143 203q139 0 139 -203v-93h-112v146q0 33 -27 33q-26 0 -26 -33v-580q0 -33 26 -33q27 0 27 33v173zM22.1514 510.109h315.336v-61.1406h-315.336v61.1406zM22.1514 413.359h315.336v-61.1406h-315.336 v61.1406z" />
<glyph unicode="&#x2122;" horiz-adv-x="543" d="M32 864h302l27 -230l29 230h100v-362h-82v148l-22 -148h-44l-25 150v-150h-81v263h-58v-263h-96v263h-50v99z" />
<glyph unicode="&#xfb01;" horiz-adv-x="303" d="M279 -16h-105v553h-40v-553h-105v553h-25v109h25v53q0 165 137 165h113v-108h-113q-32 0 -32 -27v-83h145v-662z" />
<glyph unicode="&#xfb02;" horiz-adv-x="303" d="M134 646h40v110h-8q-32 0 -32 -27v-83zM279 -16h-105v553h-40v-553h-105v553h-25v109h25v53q0 165 137 165h113v-880z" />
</font>
</defs>
</svg>
